<?xml version="1.0" encoding="UTF-8" standalone="no"?>
<svg
   xmlns:dc="http://purl.org/dc/elements/1.1/"
   xmlns:cc="http://creativecommons.org/ns#"
   xmlns:rdf="http://www.w3.org/1999/02/22-rdf-syntax-ns#"
   xmlns:svg="http://www.w3.org/2000/svg"
   xmlns="http://www.w3.org/2000/svg"
   xmlns:xlink="http://www.w3.org/1999/xlink"
   id="svg2985"
   height="293.73022"
   width="308.56943"
   version="1.1">
  <metadata
     id="metadata2991">
    <rdf:RDF>
      <cc:Work
         rdf:about="">
        <dc:format>image/svg+xml</dc:format>
        <dc:type
           rdf:resource="http://purl.org/dc/dcmitype/StillImage" />
        <dc:title></dc:title>
      </cc:Work>
    </rdf:RDF>
  </metadata>
  <defs
     id="defs2989">
    <linearGradient
       id="linearGradient4063">
      <stop
         offset="0"
         style="stop-color:#000000;stop-opacity:0"
         id="stop4065" />
      <stop
         offset="1"
         style="stop-color:#000000;stop-opacity:1"
         id="stop4067" />
    </linearGradient>
    <linearGradient
       id="linearGradient3932">
      <stop
         offset="0"
         style="stop-color:#ff3333;stop-opacity:1"
         id="stop3934" />
      <stop
         offset="1"
         style="stop-color:#ac0000;stop-opacity:1"
         id="stop3936" />
    </linearGradient>
    <linearGradient
       id="linearGradient3924">
      <stop
         offset="0"
         style="stop-color:#ff4c4c;stop-opacity:1"
         id="stop3926" />
      <stop
         offset="1"
         style="stop-color:#d40000;stop-opacity:1"
         id="stop3928" />
    </linearGradient>
    <linearGradient
       id="linearGradient3912">
      <stop
         offset="0"
         style="stop-color:#ffffff;stop-opacity:0.80000001"
         id="stop3914" />
      <stop
         offset="0.40000001"
         style="stop-color:#ffffff;stop-opacity:0.27403846"
         id="stop3916" />
      <stop
         offset="1"
         style="stop-color:#ffffff;stop-opacity:0"
         id="stop3918" />
    </linearGradient>
    <linearGradient
       id="linearGradient3859">
      <stop
         offset="0"
         style="stop-color:#ecd67c;stop-opacity:1"
         id="stop3861" />
      <stop
         offset="1"
         style="stop-color:#aa8d18;stop-opacity:1"
         id="stop3863" />
    </linearGradient>
    <clipPath
       id="clipPath3837">
      <path
         style="fill:#d40000;fill-opacity:1;fill-rule:nonzero;stroke:none"
         id="path3839"
         d="m 228.74109,261.53795 -74.17403,-38.25106 -73.961675,38.66007 13.457927,-82.36393 -59.623351,-58.39516 82.491469,-12.6526 37.11248,-74.750226 37.52459,74.544166 82.56008,12.19696 -59.29997,58.72343 13.91248,82.28835 z" />
    </clipPath>
    <radialGradient
       gradientTransform="matrix(1,0,0,0.95190966,0,7.0627937)"
       gradientUnits="userSpaceOnUse"
       xlink:href="#linearGradient3859"
       id="radialGradient3871"
       fy="125.87154"
       fx="131.4379"
       r="154.28471"
       cy="125.87153"
       cx="131.43788" />
    <radialGradient
       gradientTransform="matrix(2.4565777,0,0,2.6669826,-154.85658,-234.81912)"
       gradientUnits="userSpaceOnUse"
       xlink:href="#linearGradient3859"
       id="radialGradient3873"
       fy="135.62152"
       fx="116.54199"
       r="62.295822"
       cy="135.62152"
       cx="116.54199" />
    <radialGradient
       gradientTransform="matrix(1,0,0,0.95190968,2.3134901,9.4213932)"
       gradientUnits="userSpaceOnUse"
       xlink:href="#linearGradient3924"
       id="radialGradient3930"
       fy="126.26476"
       fx="132.09807"
       r="119.84431"
       cy="126.26476"
       cx="132.09807" />
    <radialGradient
       gradientTransform="matrix(1,0,0,0.95190966,0,7.0627937)"
       gradientUnits="userSpaceOnUse"
       xlink:href="#linearGradient3912"
       id="radialGradient3942"
       fy="125.87154"
       fx="131.4379"
       r="154.28471"
       cy="125.87153"
       cx="131.43788" />
    <filter
       id="filter3994"
       color-interpolation-filters="sRGB">
      <feGaussianBlur
         stdDeviation="0.94128125"
         id="feGaussianBlur3996" />
    </filter>
    <filter
       id="filter4035"
       color-interpolation-filters="sRGB">
      <feGaussianBlur
         stdDeviation="2.6893434"
         id="feGaussianBlur4037" />
    </filter>
    <clipPath
       id="clipPath4039">
      <path
         style="fill:url(#radialGradient4043);fill-opacity:1;fill-rule:nonzero;stroke:none"
         id="path4041"
         d="m 239.88469,278.54865 -85.27486,-43.97568 -85.030716,44.44591 15.472029,-94.69045 -68.546534,-67.13453 94.837081,-14.54618 42.6667,-85.937288 43.14049,85.700388 94.91596,14.02234 -68.17476,67.51194 15.99461,94.60355 z" />
    </clipPath>
    <radialGradient
       gradientTransform="matrix(1,0,0,0.95190964,0,7.2386047)"
       gradientUnits="userSpaceOnUse"
       xlink:href="#linearGradient3932"
       id="radialGradient4043"
       fy="178.13652"
       fx="195.10382"
       r="137.78012"
       cy="178.13652"
       cx="195.10382" />
    <filter
       id="filter4059"
       color-interpolation-filters="sRGB">
      <feGaussianBlur
         stdDeviation="1.2992725"
         id="feGaussianBlur4061" />
    </filter>
    <radialGradient
       gradientTransform="matrix(1.0820939,-0.6247472,0.59470288,1.0300556,-328.7453,38.708262)"
       gradientUnits="userSpaceOnUse"
       xlink:href="#linearGradient4063"
       id="radialGradient4069"
       fy="258.55753"
       fx="281.41516"
       r="137.78012"
       cy="258.55753"
       cx="281.41516" />
    <radialGradient
       gradientTransform="matrix(1,0,0,0.95190964,0,7.2386047)"
       gradientUnits="userSpaceOnUse"
       xlink:href="#linearGradient3932"
       id="radialGradient4071"
       fy="178.13652"
       fx="195.10382"
       r="137.78012"
       cy="178.13652"
       cx="195.10382" />
  </defs>
  <path
     style="fill:#e9c011;fill-opacity:1;fill-rule:nonzero;stroke:none"
     id="path1938"
     d="M 250.13865,293.20368 154.64878,243.96016 59.432271,293.73023 76.75769,187.69686 0,112.52032 106.19757,96.231663 153.97528,0 l 48.30826,95.966394 106.2859,15.702056 -76.34139,75.59917 17.91062,105.93606 z" />
  <path
     style="fill:#c81414;fill-opacity:1;fill-rule:nonzero;stroke:none"
     id="path3833"
     d="m 239.88469,278.54865 -85.27486,-43.97568 -85.030716,44.44591 15.472029,-94.69045 -68.546534,-67.13453 94.837081,-14.54618 42.6667,-85.937288 43.14049,85.700388 94.91596,14.02234 -68.17476,67.51194 z" />
  <path
     id="path3180"
     d="m 147.79536,29.223316 -3.73633,7.529297 9.89649,125.031247 -18.1836,-108.339841 -3.94726,7.949219 21.81055,100.453122 -26.5586,-90.890622 -3.88281,7.820313 30.13086,83.171879 -33.00391,-77.382817 -3.74609,7.542969 36.45312,69.978518 -38.2539,-66.347659 -3.43164,6.910159 -0.40235,0.0625 41.8125,59.54883 -44.48047,-59.14063 -8.09765,1.24219 52.32617,58.10742 -56.42383,-57.47852 -8.43945,1.29297 64.64062,56.42383 -71.16601,-55.42187 -8.69141,1.33203 79.66602,54.35351 -90.35156,-52.71484 -8.84961,1.35742 99.04296,51.64453 -117.56835,-48.80273 -8.44727,1.29492 125.89453,47.8125 -121.80273,-33.14648 5.91015,5.7871 115.81055,27.67579 -103.30078,-15.42188 6.13672,6.00977 97.125,9.73437 -89.95899,-2.71679 6.03711,5.9121 83.92188,-2.86718 -79.64258,7.05859 5.83789,5.7168 73.84375,-12.45313 -71.20898,15.03321 4.53515,4.44335 -0.23828,1.45899 66.99414,-20.61719 -67.39453,23.06641 -1.30664,8 68.82226,-30.76367 -69.4414,34.54492 -1.34375,8.23633 70.94336,-42.49414 -71.94727,48.6289 -1.39257,8.52735 73.53124,-56.89258 -75.18749,67.03515 -1.42383,8.71289 76.83398,-75.50976 -79.71094,93.11328 -1.35937,8.32031 81.32226,-101.22461 -68.78515,105.0293 7.29492,-3.81445 61.76562,-101.04102 -46.34961,92.98438 7.59961,-3.97266 39.04688,-88.87109 -30.23633,84.26367 7.46289,-3.90039 23.08399,-80.26367 -17.77344,77.48632 7.18164,-3.75195 10.91211,-73.67187 -7.6582,71.9707 6.92968,-3.62305 1.05469,-68.32812 1.02344,67.96484 6.96093,3.58984 -7.6582,-71.57421 10.82617,73.20703 7.21094,3.71875 -17.7168,-76.98828 22.86915,79.64453 7.46484,3.84961 -30.02344,-83.59375 38.62695,88.03125 7.62696,3.93359 -45.95703,-92.10547 60.99609,99.86133 7.33789,3.7832 -68.05859,-103.81836 82.46679,102.57032 -1.39843,-8.27149 -80.81641,-94.50781 77.73047,76.25195 -1.45899,-8.62695 -76.04882,-67.86328 74.2832,57.41601 -1.44336,-8.52929 -72.64844,-49.15039 71.58399,42.84375 -1.39258,-8.22657 -70.03125,-34.90429 69.35937,30.92382 -1.33984,-7.92773 -67.90039,-23.29883 67.47461,20.7832 -0.33985,-2.00781 4.12305,-4.08398 -71.17578,-15.00977 73.7832,12.42774 5.74805,-5.69141 -79.49219,-7.05859 83.72461,2.86718 6,-5.94336 -89.72461,2.74805 96.68946,-9.64258 6.10351,-6.04492 -102.83203,15.36524 115.01563,-27.43164 5.91601,-5.85743 -121.01367,32.97266 127.13672,-48.33594 -8.36914,-1.23633 -118.88672,49.26758 99.79883,-52.08789 -8.82422,-1.30469 -91.13477,53.10547 80.13672,-54.73047 -8.67578,-1.28125 -71.65234,55.74805 64.95312,-56.73828 -8.42187,-1.24414 -56.75391,57.74414 52.58008,-58.36133 -8.13672,-1.20117 -44.69531,59.35352 41.94531,-59.75977 -0.60742,-0.0898 -3.35938,-6.671879 -38.2539,66.347659 36.44726,-69.937502 -3.77148,-7.492188 -32.97266,77.29102 30.0957,-83.007817 -3.91015,-7.767578 -26.4961,90.673825 21.75391,-100.093747 -3.98242,-7.910156 -18.0918,107.941403 9.89649,-124.222653 -3.79688,-7.542969 -6.42578,131.746092 z"
     style="fill:#9b0f0f;fill-opacity:1;fill-rule:nonzero;stroke:none" />
  <path
     style="color:#000000;display:inline;overflow:visible;visibility:visible;fill:#e9c011;fill-opacity:1;fill-rule:evenodd;stroke:none;stroke-width:0.56192362;marker:none;enable-background:accumulate"
     id="rect2995"
     d="m 125.13362,106.41238 -32.093747,24.875 15.124997,22.34375 50.75,-38.09375 z m 50.65625,7.625 c 28.49411,23.87917 27.35595,54.51146 7.90625,69.34375 l 2.75,3.34375 c 5.42637,-4.6995 14.87951,-10.96578 14.5,-34.90625 -0.0649,-4.0911 0.23778,-5.82228 0.90625,-8.40625 1.72982,2.44788 2.76824,3.85919 3.375,7.59375 3.66932,22.58462 -5.94404,32.41027 -14.1875,41.3125 l 5.1875,6.3125 c 13.37949,-10.56296 21.76508,-25.07244 20.15625,-42.34375 -1.60882,-17.27131 -13.20655,-37.32323 -40.59375,-42.25 z m -37.03125,21.90625 -13.08024,9.91976 67.58024,90.98649 c 7.86406,10.62623 25.05716,2.44394 18.09375,-12.3125 z m -5.84375,44.40625 -10.34375,14.65625 7.875,6.5625 -0.0312,0.0625 h 0.0937 l 5.6875,0.6875 c 15.71221,8.19923 24.16062,8.40615 31.375,7.25 l -11.59375,-16.875 c -4.68038,-0.2091 -9.34397,-1.89995 -14.03125,-5.5625 l -0.0625,0.0937 z m -12.93498,17.52049 -3.34627,3.29201 10.0625,7.21875 2.06376,-3.81101 z m -5.81502,6.60451 -20.906247,19.78125 c -4.7449,14.12254 4.328942,20.42701 18.562497,13.1875 l 12.6875,-25.46875 z" />
</svg>
